<?xml version="1.0" encoding="UTF-8"?>
<svg width="259px" height="259px" viewBox="0 0 259 259" version="1.1" xmlns="http://www.w3.org/2000/svg" xmlns:xlink="http://www.w3.org/1999/xlink">
    <title>矩形 2</title>
    <g id="页面-1" stroke="none" stroke-width="1" fill="none" fill-rule="evenodd">
        <g id="矩形-2">
            <rect id="矩形" stroke="#979797" fill="#D8D8D8" opacity="0" x="0.5" y="0.5" width="258" height="258"></rect>
            <g id="全部折叠-light" transform="translate(27, 33)" fill="#0B0C0B" fill-rule="nonzero">
                <path d="M10.8741829,76.6269129 L123.800072,76.6269129 C124.835131,76.6269129 125.682493,75.6314116 125.682493,74.4035018 L125.682493,58.8379566 C125.699448,57.6371437 124.859751,56.6443522 123.800072,56.6145455 L10.8741829,56.6145455 C9.81450377,56.6445606 8.97480711,57.6371437 8.99176138,58.8379566 L8.99176138,74.4035018 C8.99176138,75.6314116 9.83932436,76.6269129 10.8741829,76.6269129 Z M8.99176138,133.339424 C8.99176138,134.548783 9.83912419,135.563044 10.8741829,135.563044 L123.800072,135.563044 C124.835131,135.563044 125.682493,134.548783 125.682493,133.339424 L125.682493,117.773879 C125.699448,116.572441 124.859751,115.579233 123.800072,115.55026 L10.8741829,115.55026 C9.81450377,115.579233 8.97480711,116.572441 8.99176138,117.773879 L8.99176138,133.339424 Z M202.949138,0 L2.05086266,0 C0.896705119,0.0289729204 -0.0182539767,1.02176443 0.000276567675,2.22382797 L0.000276567675,17.7893731 C0.000276567675,19.017283 0.923327206,20.0127842 2.05086266,20.0127842 L202.949338,20.0127842 C204.076673,20.0127842 204.999724,19.017283 204.999724,17.7893731 L204.999724,2.22382797 C205.018254,1.02176443 204.102495,0.0289729204 202.949138,0 L202.949138,0 Z M202.949138,171.987216 L2.05086266,171.987216 C0.896705119,172.016189 -0.0180538106,173.008772 0.000282488457,174.211252 L0.000282488457,189.776797 C0.000282488457,191.004499 0.923327206,192 2.05086266,192 L202.949338,192 C204.076673,192 204.999724,191.004499 204.999724,189.776797 L204.999724,174.211252 C205.018254,173.008772 204.102495,172.016189 202.949138,171.987216 Z" id="形状"></path>
                <path d="M137.025845,129.929374 L146.412032,139.703462 L158.170787,127.458338 L158.170787,162.078894 L171.316494,162.078894 L171.316494,127.063556 L183.431145,139.67574 L192.817332,129.902069 L164.927793,100.859947 L155.541806,110.640913 L155.542807,110.642164 L137.025845,129.929374 Z M137.006028,62.2194508 L164.889562,91.2615727 L164.892764,91.2580292 L164.915783,91.2817912 L192.791511,62.2398777 L183.412129,52.4657901 L171.291673,65.084018 L171.291673,30.0628441 L158.144966,30.0628441 L158.144966,64.6861093 L146.393216,52.4453631 L137.006028,62.2194508 Z" id="形状"></path>
            </g>
        </g>
    </g>
</svg>