<?xml version="1.0" encoding="UTF-8"?>
<svg width="259px" height="259px" viewBox="0 0 259 259" version="1.1" xmlns="http://www.w3.org/2000/svg" xmlns:xlink="http://www.w3.org/1999/xlink">
    <title>矩形 2</title>
    <g id="页面-1" stroke="none" stroke-width="1" fill="none" fill-rule="evenodd">
        <g id="矩形-2">
            <rect id="矩形" stroke="#979797" fill="#D8D8D8" opacity="0" x="0.5" y="0.5" width="258" height="258"></rect>
            <g id="全部展开-light" transform="translate(27, 33)" fill="#0B0C0B" fill-rule="nonzero">
                <path d="M10.8744229,76.6269129 L123.800016,76.6269129 C124.835072,76.6269129 125.682685,75.6314116 125.682685,74.4035018 L125.682685,58.8379566 C125.699387,57.6371437 124.859693,56.6443521 123.800016,56.6145456 L10.8744229,56.6145456 C9.81474651,56.6445607 8.97505206,57.6371437 8.991754,58.8379566 L8.991754,74.4035018 C8.991754,75.6314116 9.83956704,76.6269129 10.8744229,76.6269129 Z M8.991754,133.339424 C8.991754,134.548784 9.83936688,135.563044 10.8744229,135.563044 L123.800016,135.563044 C124.835072,135.563044 125.682685,134.548784 125.682685,133.339424 L125.682685,117.773879 C125.699387,116.572441 124.859693,115.579233 123.800016,115.55026 L10.8744229,115.55026 C9.81474651,115.579233 8.97505206,116.572441 8.991754,117.773879 L8.991754,133.339424 Z M202.948875,0 L2.05112574,0 C0.896971214,0.0289729204 -0.0179854861,1.02176443 0.000268442773,2.22382797 L0.000268442773,17.7893731 C0.000268442773,19.017283 0.923593231,20.0127843 2.05112574,20.0127843 L202.949075,20.0127843 C204.076407,20.0127843 204.999732,19.017283 204.999732,17.7893731 L204.999732,2.22382797 C205.017986,1.02176443 204.102229,0.0289729204 202.948875,0 L202.948875,0 Z M202.948875,171.987216 L2.05112574,171.987216 C0.896971214,172.016188 -0.0177853205,173.008771 0.000280023933,174.211252 L0.000280023933,189.776797 C0.000280023933,191.004498 0.923593231,192 2.05112574,192 L202.949075,192 C204.076407,192 204.999732,191.004498 204.999732,189.776797 L204.999732,174.211252 C205.017986,173.008771 204.102229,172.016188 202.948875,171.987216 Z" id="形状"></path>
                <path d="M192.817095,133.009467 L183.430933,123.235379 L171.672208,135.480502 L171.672208,100.859947 L158.526537,100.859947 L158.526537,135.875284 L146.411917,123.263102 L137.025754,133.036772 L164.91522,162.078894 L174.301182,152.297928 L174.300182,152.296677 L192.817095,133.009467 Z M192.791274,59.1251845 L164.907814,30.0830627 L164.904611,30.0866061 L164.881592,30.0628442 L137.005937,59.1047576 L146.385295,68.8788452 L158.505719,56.2606173 L158.505719,91.2817911 L171.652392,91.2817911 L171.652392,56.658526 L183.404111,68.8992722 L192.791274,59.1251845 Z" id="形状"></path>
            </g>
        </g>
    </g>
</svg>