<?xml version="1.0" encoding="UTF-8"?>
<svg width="909px" height="566px" viewBox="0 0 909 566" version="1.1" xmlns="http://www.w3.org/2000/svg" xmlns:xlink="http://www.w3.org/1999/xlink">
    <title>svg</title>
    <g id="页面-1" stroke="none" stroke-width="1" fill="none" fill-rule="evenodd">
        <g id="svg" fill="#0B0C0B">
            <path d="M817,0 C867.810197,-9.33368176e-15 909,41.189803 909,92 L909,474 C909,524.810197 867.810197,566 817,566 L92,566 C41.189803,566 3.11122725e-15,524.810197 0,474 L0,92 C-6.22245451e-15,41.189803 41.189803,6.22245451e-15 92,0 L817,0 Z M770,50 L138,50 C91.608081,50 54,87.608081 54,134 L54,436 C54,482.391919 91.608081,520 138,520 L770,520 C816.391919,520 854,482.391919 854,436 L854,134 C854,87.608081 816.391919,50 770,50 Z" id="形状结合"></path>
            <polygon id="svg_1" fill-rule="nonzero" points="283.183355 249.049187 283.35223 249.431377 283.734419 249.591363 400.408862 249.591363 400.915485 249.760237 401.093248 250.284637 401.093248 312.190441 400.888821 312.688176 400.391086 312.892603 283.201132 312.892603 282.996705 312.963708 282.934488 313.159247 282.934488 459.795565 282.82783 460.062209 282.561187 460.168867 282.561187 460.168867 282.561187 460.168867 219.055519 460.168867 218.833316 459.946664 218.67333 199.586761 218.797764 193.978352 219.188841 188.245511 219.837675 182.406011 220.753152 176.442078 222.130811 169.855976 223.943989 163.492077 226.183797 157.341493 228.859123 151.404224 228.859123 151.404224 228.859123 151.404224 232.396598 144.978109 236.476248 138.818637 238.662728 136.0011 241.169179 133.165788 243.977827 130.303811 247.106448 127.432946 251.13277 124.162115 255.345742 121.220145 259.798693 118.580371 265.495983 115.736171 271.522133 113.238607 277.699381 111.141009 284.178826 109.407824 290.853809 108.065717 297.795436 107.096911 304.861497 106.519183 312.140873 106.332533 458.40389 106.29698 459.230486 106.572512 459.506018 107.407996 459.506018 170.433704 459.417137 170.886999 459.159381 171.269188 458.78608 171.526944 458.332785 171.615825 458.332785 171.615825 458.332785 171.615825 314.593996 171.54472 310.007723 171.740259 305.634764 172.344651 301.484009 173.340122 297.555457 174.735558 294.924571 176.059888 292.729204 177.704192 291.315992 179.170733 290.036101 180.930582 288.418462 183.828111 287.067467 186.96562 285.992004 190.33422 285.192072 193.9428 283.947734 202.688717 283.281125 211.816823 283.005593 227.291052 283.183355 249.049187"></polygon>
            <polygon id="svg_2" fill-rule="nonzero" points="521.078609 315.615449 520.736137 315.343227 520.621979 315.773513 520.621979 459.84035 520.525384 460.121353 520.244381 460.217948 458.818834 460.217948 458.555393 460.156478 458.291953 459.928163 458.195358 459.594472 458.063638 262.663905 457.808979 222.585821 457.914355 222.260911 458.248046 222.146753 509.294037 222.05894 514.483815 222.278474 519.84922 222.963419 522.878786 223.62202 525.723944 224.552843 528.393474 225.755888 530.878596 227.222374 530.878596 227.222374 530.878596 227.222374 530.878596 227.222374 532.994902 228.803017 534.953143 230.603194 536.75332 232.631686 538.412995 234.879712 610.903044 343.013262 626.93779 366.573626 627.385639 367.109288 627.701767 367.241008 627.894957 366.951224 627.956427 366.257497 627.956427 222.682416 628.123272 222.278474 628.527214 222.111628 689.513694 222.111628 689.917636 222.278474 690.084482 222.673634 690.084482 222.673634 690.084482 222.673634 690.084482 459.638379 689.917636 460.138916 689.417099 460.29698 641.260173 460.235511 634.80588 460.015977 632.083661 459.699848 629.607321 459.243218 627.227575 458.602179 625.084925 457.820639 623.065214 456.863472 621.115755 455.686771 618.244253 453.394838 616.084041 451.225845 613.923828 448.775848 609.629748 443.041626 573.116892 389.923237 531.721606 330.5174 521.078609 315.615449"></polygon>
        </g>
    </g>
</svg>