<?xml version="1.0" encoding="UTF-8"?>
<svg width="259px" height="259px" viewBox="0 0 259 259" version="1.1" xmlns="http://www.w3.org/2000/svg" xmlns:xlink="http://www.w3.org/1999/xlink">
    <title>矩形 2</title>
    <g id="页面-1" stroke="none" stroke-width="1" fill="none" fill-rule="evenodd">
        <g id="矩形-2">
            <rect id="矩形" stroke="#979797" fill="#D8D8D8" opacity="0" x="0.5" y="0.5" width="258" height="258"></rect>
            <g id="全部折叠dark" transform="translate(27, 33)" fill="#BCBEBE" fill-rule="nonzero">
                <path d="M10.8741829,76.6269129 L123.800072,76.6269129 C124.835131,76.6269129 125.682493,75.6314116 125.682493,74.4035018 L125.682493,58.8379566 C125.699448,57.6371437 124.859751,56.6443522 123.800072,56.6145455 L10.8741829,56.6145455 C9.81450377,56.6445606 8.97480711,57.6371437 8.99176138,58.8379566 L8.99176138,74.4035018 C8.99176138,75.6314116 9.83932436,76.6269129 10.8741829,76.6269129 Z M8.99176138,133.339424 C8.99176138,134.548783 9.83912419,135.563044 10.8741829,135.563044 L123.800072,135.563044 C124.835131,135.563044 125.682493,134.548783 125.682493,133.339424 L125.682493,117.773879 C125.699448,116.572441 124.859751,115.579233 123.800072,115.55026 L10.8741829,115.55026 C9.81450377,115.579233 8.97480711,116.572441 8.99176138,117.773879 L8.99176138,133.339424 Z M202.949138,0 L2.05086266,0 C0.896705119,0.0289729204 -0.0182539767,1.02176443 0.000276567675,2.22382797 L0.000276567675,17.7893731 C0.000276567675,19.017283 0.923327206,20.0127842 2.05086266,20.0127842 L202.949338,20.0127842 C204.076673,20.0127842 204.999724,19.017283 204.999724,17.7893731 L204.999724,2.22382797 C205.018254,1.02176443 204.102495,0.0289729204 202.949138,0 L202.949138,0 Z M202.949138,171.987216 L2.05086266,171.987216 C0.896705119,172.016189 -0.0180538106,173.008772 0.000282488457,174.211252 L0.000282488457,189.776797 C0.000282488457,191.004499 0.923327206,192 2.05086266,192 L202.949338,192 C204.076673,192 204.999724,191.004499 204.999724,189.776797 L204.999724,174.211252 C205.018254,173.008772 204.102495,172.016189 202.949138,171.987216 Z" id="形状"></path>
                <path d="M137.019883,132.934107 L146.437805,123.161207 L158.236317,135.404842 L158.236317,100.788496 L171.426468,100.788496 L171.426468,135.799576 L183.582078,123.188926 L193,132.961409 L165.016168,162 L155.598447,152.220223 L155.599451,152.218973 L137.019883,132.934107 Z M137,59.0588072 L164.977807,30.0202161 L164.98102,30.0237591 L165.004117,30 L192.974091,59.0383827 L183.562998,68.8112821 L171.401564,56.1945882 L171.401564,91.2115044 L158.210408,91.2115044 L158.210408,56.5924485 L146.418926,68.8317066 L137,59.0588072 Z" id="形状"></path>
            </g>
        </g>
    </g>
</svg>